<svg width="280" height="280" viewBox="0 0 280 280" xmlns="http://www.w3.org/2000/svg" role="img">
  <title>WD3000 app icon</title>

  <circle cx="140" cy="140" r="120" fill="rgb(151, 109, 121)"/>

  <!-- Inner ring (filled annulus, stroke-width 6 at r=74) -->
  <path
    fill="#ffffff"
    fill-rule="evenodd"
    d="M140 63A77 77 0 1 1 139.999 63ZM140 71A71 71 0 1 0 140.001 71Z"
  />

  <!-- Flux arms (filled capsules along the three rays) -->
  <path fill="#ffffff" d="M137 66h6v74h-6z"/>
  <path fill="#ffffff" transform="rotate(120 140 140)" d="M137 66h6v74h-6z"/>
  <path fill="#ffffff" transform="rotate(240 140 140)" d="M137 66h6v74h-6z"/>

  <circle cx="140" cy="66" r="12" fill="#ffffff"/>
  <circle cx="204" cy="177" r="12" fill="#ffffff"/>
  <circle cx="76" cy="177" r="12" fill="#ffffff"/>

  <!-- Grantler logo, centered (source viewBox 1011x1117) -->
  <g transform="translate(140 140) scale(0.05) translate(-505.5 -558.5)">
    <!-- face / beard -->
    <path
      fill-rule="evenodd"
      clip-rule="evenodd"
      d="M61 483.494L550.712 511.218L846.559 458L866.557 676.971L905.33 760.538L891.167 851.462L975 932.453L866.557 954.783L846.559 1006.05L774.523 994.075L605.654 1034.78L576.498 1096.36L465.154 1006.05L337.117 1112C367.181 1034.59 378.892 995.287 372.251 994.075C344.14 988.948 307.74 980.651 263.051 969.186L246.619 889.171L167.909 851.462L235.692 777.048L189.541 741.896L167.909 666.825L189.541 583.815L212.869 553.095L61 483.494Z"
      fill="#ffffff"
    />
    <!-- mustache -->
    <path
      fill-rule="evenodd"
      clip-rule="evenodd"
      d="M910.36 708L955 772.433L894.158 836.156L603.899 828.43L397.469 907L301 882.918L343.048 820.069L564.103 720.346L637.201 708H910.36Z"
      fill="rgb(151, 109, 121)"
    />
    <!-- nose -->
    <path
      fill-rule="evenodd"
      clip-rule="evenodd"
      d="M588.975 630H605.183L630 691.51L543 702L550.324 691.51L597.618 677.25L588.975 630Z"
      fill="rgb(151, 109, 121)"
    />
    <!-- left eye -->
    <path
      fill-rule="evenodd"
      clip-rule="evenodd"
      d="M520.732 553.5V615L321 565.094L520.732 553.5Z"
      fill="rgb(151, 109, 121)"
    />
    <!-- right eye -->
    <path
      fill-rule="evenodd"
      clip-rule="evenodd"
      d="M606.331 546.824L752 504L639.709 600L606.331 546.824Z"
      fill="rgb(151, 109, 121)"
    />
    <!-- hat -->
    <path
      fill-rule="evenodd"
      clip-rule="evenodd"
      d="M550.392 49.4517L831.411 287.81L1011 312.342L857.443 458.551L550.392 511L48.1221 487.698L154.054 378.9L308.32 76.7706L517.167 111.991L550.392 49.4517Z"
      fill="#ffffff"
    />
    <!-- feather -->
    <path
      fill-rule="evenodd"
      clip-rule="evenodd"
      d="M137.105 34.5638L309 76.949L279.716 136.367L137.105 49.505H105.714L51.5941 94.4878L11.0482 136.367L0 68.1833L23.6835 17.2783L74.4612 0L137.105 34.5638Z"
      fill="#ffffff"
    />
  </g>
</svg>
